<svg id="Layer_1" data-name="Layer 1" xmlns="http://www.w3.org/2000/svg" viewBox="0 0 458.29 455.6"><defs><style>.cls-1{fill:#2f89fc;}.cls-2{fill:#b31e6f;}</style></defs><path class="cls-1" d="M310.78,353.55a41.42,41.42,0,0,0,41.42-41.42h0a41.41,41.41,0,0,0-41.42-41.42H187.7c-47.47,0-86.13-39.35-83.92-86.77A82.83,82.83,0,0,1,186.53,105H310.78A41.42,41.42,0,0,0,352.2,63.62h0A41.41,41.41,0,0,0,310.78,22.2H186.53a165.68,165.68,0,1,0,0,331.35Z" transform="translate(-20.85 -22.2)"/><path class="cls-2" d="M457,229.29a165.62,165.62,0,0,0-143.51-82.84H189.22a41.42,41.42,0,0,0-41.42,41.42h0a41.41,41.41,0,0,0,41.42,41.42H313.47a82.83,82.83,0,0,1,82.75,78.9C398.44,355.62,359.77,395,312.3,395H189.22a41.42,41.42,0,0,0-41.42,41.42h0a41.41,41.41,0,0,0,41.42,41.42H313.47A165.71,165.71,0,0,0,457,229.29Z" transform="translate(-20.85 -22.2)"/></svg>